<svg xmlns="http://www.w3.org/2000/svg" xmlns:xlink="http://www.w3.org/1999/xlink" width="850" height="581.04"><rect width="850" height="581.04" rx="5" ry="5" class="a"/><svg y="0%" x="0%"><circle cx="20" cy="20" r="6" fill="#ff5f58"/><circle cx="40" cy="20" r="6" fill="#ffbd2e"/><circle cx="60" cy="20" r="6" fill="#18c132"/></svg><svg height="521.04" viewBox="0 0 81 52.104" width="810" x="15" xmlns="http://www.w3.org/2000/svg" xmlns:xlink="http://www.w3.org/1999/xlink" y="50"><style>@keyframes q{0%{transform:translateX(0)}1%{transform:translateX(-81px)}1.16%{transform:translateX(-405px)}1.17%{transform:translateX(-486px)}5.42%{transform:translateX(-567px)}5.98%{transform:translateX(-648px)}7.91%{transform:translateX(-729px)}8.96%{transform:translateX(-810px)}10.34%{transform:translateX(-891px)}11.33%{transform:translateX(-972px)}12.66%{transform:translateX(-1053px)}13.08%{transform:translateX(-1134px)}14.13%{transform:translateX(-1215px)}14.73%{transform:translateX(-1296px)}15.39%{transform:translateX(-1377px)}15.98%{transform:translateX(-1458px)}16.97%{transform:translateX(-1539px)}17.59%{transform:translateX(-1620px)}18.07%{transform:translateX(-1701px)}18.55%{transform:translateX(-1782px)}19.1%{transform:translateX(-1863px)}19.58%{transform:translateX(-1944px)}20.57%{transform:translateX(-2025px)}21.34%{transform:translateX(-2106px)}21.69%{transform:translateX(-2187px)}22.5%{transform:translateX(-2268px)}24.15%{transform:translateX(-2349px)}24.17%{transform:translateX(-2430px)}24.19%{transform:translateX(-2511px)}30.03%{transform:translateX(-2592px)}30.11%{transform:translateX(-2673px)}30.17%{transform:translateX(-2916px)}30.18%{transform:translateX(-2997px)}36.58%{transform:translateX(-3078px)}36.93%{transform:translateX(-3159px)}37.75%{transform:translateX(-3240px)}38.47%{transform:translateX(-3321px)}39.82%{transform:translateX(-3402px)}41.13%{transform:translateX(-3483px)}43.54%{transform:translateX(-3564px)}44.01%{transform:translateX(-3645px)}45.08%{transform:translateX(-3726px)}45.56%{transform:translateX(-3807px)}46.65%{transform:translateX(-3888px)}47.33%{transform:translateX(-3969px)}49.33%{transform:translateX(-4050px)}49.67%{transform:translateX(-4131px)}50.19%{transform:translateX(-4212px)}50.98%{transform:translateX(-4293px)}51.76%{transform:translateX(-4374px)}52.47%{transform:translateX(-4455px)}52.91%{transform:translateX(-4536px)}53.56%{transform:translateX(-4617px)}55.42%{transform:translateX(-4698px)}56.36%{transform:translateX(-4779px)}56.77%{transform:translateX(-4860px)}59.19%{transform:translateX(-4941px)}60.2%{transform:translateX(-5022px)}61.37%{transform:translateX(-5103px)}61.9%{transform:translateX(-5184px)}62.3%{transform:translateX(-5265px)}63.16%{transform:translateX(-5346px)}63.93%{transform:translateX(-5427px)}64.25%{transform:translateX(-5508px)}65.25%{transform:translateX(-5589px)}65.28%{transform:translateX(-5670px)}65.29%{transform:translateX(-5751px)}71.47%{transform:translateX(-5832px)}71.56%{transform:translateX(-5913px)}71.62%{transform:translateX(-5994px)}71.63%{transform:translateX(-6237px)}75.35%{transform:translateX(-6318px)}75.72%{transform:translateX(-6399px)}76.74%{transform:translateX(-6480px)}78.33%{transform:translateX(-6561px)}78.92%{transform:translateX(-6642px)}79.98%{transform:translateX(-6723px)}80.89%{transform:translateX(-6804px)}81.36%{transform:translateX(-6885px)}82.38%{transform:translateX(-6966px)}83.2%{transform:translateX(-7047px)}83.75%{transform:translateX(-7128px)}84.5%{transform:translateX(-7209px)}85.41%{transform:translateX(-7290px)}85.43%{transform:translateX(-7371px)}85.44%{transform:translateX(-7452px)}89.11%{transform:translateX(-7533px)}89.12%{transform:translateX(-7614px)}89.16%{transform:translateX(-7695px)}89.23%{transform:translateX(-8019px)}89.24%{transform:translateX(-8100px)}to{transform:translateX(-8181px)}}.a{fill:#282d35}.g{fill:#d290e4}.h{fill:#b9c0cb;text-decoration:underline}.i{fill:#e88388;font-weight:700}.j{fill:#a8cc8c}.k{fill:#b9c0cb}.l{fill:#a8cc8c;font-weight:700}.m{fill:#66c2cd}.n{fill:#6f7783}.o{fill:#dbab79}</style><g font-size="1.67" font-family="Monaco,Consolas,Menlo,'Bitstream Vera Sans Mono','Powerline Symbols',monospace"><defs><symbol id="1"><text y="1.67" fill="#71bef2">~</text></symbol><symbol id="2"><text y="1.67" class="g">❯</text></symbol><symbol id="3"><text y="1.67" class="g">❯</text><text x="2.004" y="1.67" class="h">b</text></symbol><symbol id="4"><text y="1.67" class="g">❯</text><text x="2.004" y="1.67" class="h">bi</text></symbol><symbol id="5"><text y="1.67" class="g">❯</text><text x="2.004" y="1.67" class="i">bit</text></symbol><symbol id="6"><text y="1.67" class="g">❯</text><text x="2.004" y="1.67" class="i">bitl</text></symbol><symbol id="7"><text y="1.67" class="g">❯</text><text x="2.004" y="1.67" class="j">bitly</text></symbol><symbol id="8"><text y="1.67" class="g">❯</text><text x="2.004" y="1.67" class="j">bitly</text><text x="8.016" y="1.67" class="k">-</text></symbol><symbol id="9"><text y="1.67" class="g">❯</text><text x="2.004" y="1.67" class="j">bitly</text><text x="8.016" y="1.67" class="k">--</text></symbol><symbol id="10"><text y="1.67" class="g">❯</text><text x="2.004" y="1.67" class="j">bitly</text><text x="8.016" y="1.67" class="k">--u</text></symbol><symbol id="11"><text y="1.67" class="g">❯</text><text x="2.004" y="1.67" class="j">bitly</text><text x="8.016" y="1.67" class="k">--ur</text></symbol><symbol id="12"><text y="1.67" class="g">❯</text><text x="2.004" y="1.67" class="j">bitly</text><text x="8.016" y="1.67" class="k">--url</text></symbol><symbol id="13"><text y="1.67" class="g">❯</text><text x="2.004" y="1.67" class="j">bitly</text><text x="8.016" y="1.67" class="k">--url</text><text x="14.028" y="1.67" class="k">google.com</text></symbol><symbol id="14"><text y="1.67" class="l">Success!</text><text x="9.018" y="1.67" class="k">Here</text><text x="14.028" y="1.67" class="k">is</text><text x="17.034" y="1.67" class="k">your</text><text x="22.044" y="1.67" class="k">Bitly</text><text x="28.056" y="1.67" class="k">URL:</text><text x="33.066" y="1.67" class="m">http://bit.ly/2EmJnLs</text><text x="55.11" y="1.67" class="n">[copied</text><text x="63.126" y="1.67" class="n">to</text><text x="66.132" y="1.67" class="n">clipboard]</text></symbol><symbol id="15"><text y="1.67" class="g">❯</text><text x="2.004" y="1.67" class="j">bitly</text><text x="8.016" y="1.67" class="k">--url</text><text x="14.028" y="1.67" class="k">kepinski.me/example</text></symbol><symbol id="16"><text y="1.67" class="l">Success!</text><text x="9.018" y="1.67" class="k">Here</text><text x="14.028" y="1.67" class="k">is</text><text x="17.034" y="1.67" class="k">your</text><text x="22.044" y="1.67" class="k">Bitly</text><text x="28.056" y="1.67" class="k">URL:</text><text x="33.066" y="1.67" class="m">http://bit.ly/2Eptowf</text><text x="55.11" y="1.67" class="n">[copied</text><text x="63.126" y="1.67" class="n">to</text><text x="66.132" y="1.67" class="n">clipboard]</text></symbol><symbol id="17"><text y="1.67" class="g">❯</text><text x="2.004" y="1.67" class="j">bitly</text><text x="8.016" y="1.67" class="k">--list</text></symbol><symbol id="18"><text y="1.67" class="k">Listing</text><text x="8.016" y="1.67" class="k">saved</text><text x="14.028" y="1.67" class="k">urls:</text></symbol><symbol id="19"><text y="1.67" class="o">http://google.com/</text><text x="19.038" y="1.67" class="k">=&gt;</text><text x="22.044" y="1.67" class="j">http://bit.ly/2EmJnLs</text></symbol><symbol id="20"><text y="1.67" class="o">http://kepinski.me/example</text><text x="27.054" y="1.67" class="k">=&gt;</text><text x="30.06" y="1.67" class="j">http://bit.ly/2Eptowf</text></symbol><symbol id="a"><path fill="transparent" d="M0 0h81v24H0z"/></symbol></defs><path class="a" d="M0 0h81v52.104H0z"/><g style="animation-duration:32.456617s;animation-iteration-count:infinite;animation-name:q;animation-timing-function:steps(1,end)"><svg width="8262"><svg><use xlink:href="#a"/></svg><svg x="81"><use xlink:href="#a"/></svg><svg x="162"><use xlink:href="#a"/><use xlink:href="#1" y="2.171"/></svg><svg x="243"><use xlink:href="#a"/><use xlink:href="#1" y="2.171"/></svg><svg x="324"><use xlink:href="#a"/><use xlink:href="#1" y="2.171"/><use xlink:href="#2" y="4.342"/></svg><svg x="405"><use xlink:href="#a"/><use xlink:href="#1" y="2.171"/><use xlink:href="#2" y="4.342"/></svg><svg x="486"><use xlink:href="#a"/><use xlink:href="#1" y="2.171"/><use xlink:href="#2" y="4.342"/></svg><svg x="567"><use xlink:href="#a"/><use xlink:href="#1" y="2.171"/><use xlink:href="#3" y="4.342"/></svg><svg x="648"><use xlink:href="#a"/><use xlink:href="#1" y="2.171"/><use xlink:href="#4" y="4.342"/></svg><svg x="729"><use xlink:href="#a"/><use xlink:href="#1" y="2.171"/><use xlink:href="#5" y="4.342"/></svg><svg x="810"><use xlink:href="#a"/><use xlink:href="#1" y="2.171"/><use xlink:href="#6" y="4.342"/></svg><svg x="891"><use xlink:href="#a"/><use xlink:href="#1" y="2.171"/><use xlink:href="#7" y="4.342"/></svg><svg x="972"><use xlink:href="#a"/><use xlink:href="#1" y="2.171"/><use xlink:href="#7" y="4.342"/></svg><svg x="1053"><use xlink:href="#a"/><use xlink:href="#1" y="2.171"/><use xlink:href="#8" y="4.342"/></svg><svg x="1134"><use xlink:href="#a"/><use xlink:href="#1" y="2.171"/><use xlink:href="#9" y="4.342"/></svg><svg x="1215"><use xlink:href="#a"/><use xlink:href="#1" y="2.171"/><use xlink:href="#10" y="4.342"/></svg><svg x="1296"><use xlink:href="#a"/><use xlink:href="#1" y="2.171"/><use xlink:href="#11" y="4.342"/></svg><svg x="1377"><use xlink:href="#a"/><use xlink:href="#1" y="2.171"/><use xlink:href="#12" y="4.342"/></svg><svg x="1458"><use xlink:href="#a"/><use xlink:href="#1" y="2.171"/><use xlink:href="#12" y="4.342"/></svg><svg x="1539"><use xlink:href="#a"/><use xlink:href="#1" y="2.171"/><text y="6.012" class="g">❯</text><text x="2.004" y="6.012" class="j">bitly</text><text x="8.016" y="6.012" class="k">--url</text><text x="14.028" y="6.012" class="k">g</text></svg><svg x="1620"><use xlink:href="#a"/><use xlink:href="#1" y="2.171"/><text y="6.012" class="g">❯</text><text x="2.004" y="6.012" class="j">bitly</text><text x="8.016" y="6.012" class="k">--url</text><text x="14.028" y="6.012" class="k">go</text></svg><svg x="1701"><use xlink:href="#a"/><use xlink:href="#1" y="2.171"/><text y="6.012" class="g">❯</text><text x="2.004" y="6.012" class="j">bitly</text><text x="8.016" y="6.012" class="k">--url</text><text x="14.028" y="6.012" class="k">goo</text></svg><svg x="1782"><use xlink:href="#a"/><use xlink:href="#1" y="2.171"/><text y="6.012" class="g">❯</text><text x="2.004" y="6.012" class="j">bitly</text><text x="8.016" y="6.012" class="k">--url</text><text x="14.028" y="6.012" class="k">goog</text></svg><svg x="1863"><use xlink:href="#a"/><use xlink:href="#1" y="2.171"/><text y="6.012" class="g">❯</text><text x="2.004" y="6.012" class="j">bitly</text><text x="8.016" y="6.012" class="k">--url</text><text x="14.028" y="6.012" class="k">googl</text></svg><svg x="1944"><use xlink:href="#a"/><use xlink:href="#1" y="2.171"/><text y="6.012" class="g">❯</text><text x="2.004" y="6.012" class="j">bitly</text><text x="8.016" y="6.012" class="k">--url</text><text x="14.028" y="6.012" class="k">google</text></svg><svg x="2025"><use xlink:href="#a"/><use xlink:href="#1" y="2.171"/><text y="6.012" class="g">❯</text><text x="2.004" y="6.012" class="j">bitly</text><text x="8.016" y="6.012" class="k">--url</text><text x="14.028" y="6.012" class="k">google.</text></svg><svg x="2106"><use xlink:href="#a"/><use xlink:href="#1" y="2.171"/><text y="6.012" class="g">❯</text><text x="2.004" y="6.012" class="j">bitly</text><text x="8.016" y="6.012" class="k">--url</text><text x="14.028" y="6.012" class="k">google.c</text></svg><svg x="2187"><use xlink:href="#a"/><use xlink:href="#1" y="2.171"/><text y="6.012" class="g">❯</text><text x="2.004" y="6.012" class="j">bitly</text><text x="8.016" y="6.012" class="k">--url</text><text x="14.028" y="6.012" class="k">google.co</text></svg><svg x="2268"><use xlink:href="#a"/><use xlink:href="#1" y="2.171"/><use xlink:href="#13" y="4.342"/></svg><svg x="2349"><use xlink:href="#a"/><use xlink:href="#1" y="2.171"/><use xlink:href="#13" y="4.342"/></svg><svg x="2430"><use xlink:href="#a"/><use xlink:href="#1" y="2.171"/><use xlink:href="#13" y="4.342"/></svg><svg x="2511"><use xlink:href="#a"/><use xlink:href="#1" y="2.171"/><use xlink:href="#13" y="4.342"/></svg><svg x="2592"><use xlink:href="#a"/><use xlink:href="#1" y="2.171"/><use xlink:href="#13" y="4.342"/><use xlink:href="#14" y="6.513"/></svg><svg x="2673"><use xlink:href="#a"/><use xlink:href="#1" y="2.171"/><use xlink:href="#13" y="4.342"/><use xlink:href="#14" y="6.513"/></svg><svg x="2754"><use xlink:href="#a"/><use xlink:href="#1" y="2.171"/><use xlink:href="#13" y="4.342"/><use xlink:href="#14" y="6.513"/><use xlink:href="#1" y="10.855"/></svg><svg x="2835"><use xlink:href="#a"/><use xlink:href="#1" y="2.171"/><use xlink:href="#13" y="4.342"/><use xlink:href="#14" y="6.513"/><use xlink:href="#1" y="10.855"/><use xlink:href="#2" y="13.026"/></svg><svg x="2916"><use xlink:href="#a"/><use xlink:href="#1" y="2.171"/><use xlink:href="#13" y="4.342"/><use xlink:href="#14" y="6.513"/><use xlink:href="#1" y="10.855"/><use xlink:href="#2" y="13.026"/></svg><svg x="2997"><use xlink:href="#a"/><use xlink:href="#1" y="2.171"/><use xlink:href="#13" y="4.342"/><use xlink:href="#14" y="6.513"/><use xlink:href="#1" y="10.855"/><use xlink:href="#2" y="13.026"/></svg><svg x="3078"><use xlink:href="#a"/><use xlink:href="#1" y="2.171"/><use xlink:href="#13" y="4.342"/><use xlink:href="#14" y="6.513"/><use xlink:href="#1" y="10.855"/><use xlink:href="#3" y="13.026"/></svg><svg x="3159"><use xlink:href="#a"/><use xlink:href="#1" y="2.171"/><use xlink:href="#13" y="4.342"/><use xlink:href="#14" y="6.513"/><use xlink:href="#1" y="10.855"/><use xlink:href="#4" y="13.026"/></svg><svg x="3240"><use xlink:href="#a"/><use xlink:href="#1" y="2.171"/><use xlink:href="#13" y="4.342"/><use xlink:href="#14" y="6.513"/><use xlink:href="#1" y="10.855"/><use xlink:href="#5" y="13.026"/></svg><svg x="3321"><use xlink:href="#a"/><use xlink:href="#1" y="2.171"/><use xlink:href="#13" y="4.342"/><use xlink:href="#14" y="6.513"/><use xlink:href="#1" y="10.855"/><use xlink:href="#6" y="13.026"/></svg><svg x="3402"><use xlink:href="#a"/><use xlink:href="#1" y="2.171"/><use xlink:href="#13" y="4.342"/><use xlink:href="#14" y="6.513"/><use xlink:href="#1" y="10.855"/><use xlink:href="#7" y="13.026"/></svg><svg x="3483"><use xlink:href="#a"/><use xlink:href="#1" y="2.171"/><use xlink:href="#13" y="4.342"/><use xlink:href="#14" y="6.513"/><use xlink:href="#1" y="10.855"/><use xlink:href="#7" y="13.026"/></svg><svg x="3564"><use xlink:href="#a"/><use xlink:href="#1" y="2.171"/><use xlink:href="#13" y="4.342"/><use xlink:href="#14" y="6.513"/><use xlink:href="#1" y="10.855"/><use xlink:href="#8" y="13.026"/></svg><svg x="3645"><use xlink:href="#a"/><use xlink:href="#1" y="2.171"/><use xlink:href="#13" y="4.342"/><use xlink:href="#14" y="6.513"/><use xlink:href="#1" y="10.855"/><use xlink:href="#9" y="13.026"/></svg><svg x="3726"><use xlink:href="#a"/><use xlink:href="#1" y="2.171"/><use xlink:href="#13" y="4.342"/><use xlink:href="#14" y="6.513"/><use xlink:href="#1" y="10.855"/><use xlink:href="#10" y="13.026"/></svg><svg x="3807"><use xlink:href="#a"/><use xlink:href="#1" y="2.171"/><use xlink:href="#13" y="4.342"/><use xlink:href="#14" y="6.513"/><use xlink:href="#1" y="10.855"/><use xlink:href="#11" y="13.026"/></svg><svg x="3888"><use xlink:href="#a"/><use xlink:href="#1" y="2.171"/><use xlink:href="#13" y="4.342"/><use xlink:href="#14" y="6.513"/><use xlink:href="#1" y="10.855"/><use xlink:href="#12" y="13.026"/></svg><svg x="3969"><use xlink:href="#a"/><use xlink:href="#1" y="2.171"/><use xlink:href="#13" y="4.342"/><use xlink:href="#14" y="6.513"/><use xlink:href="#1" y="10.855"/><use xlink:href="#12" y="13.026"/></svg><svg x="4050"><use xlink:href="#a"/><use xlink:href="#1" y="2.171"/><use xlink:href="#13" y="4.342"/><use xlink:href="#14" y="6.513"/><use xlink:href="#1" y="10.855"/><text y="14.696" class="g">❯</text><text x="2.004" y="14.696" class="j">bitly</text><text x="8.016" y="14.696" class="k">--url</text><text x="14.028" y="14.696" class="k">k</text></svg><svg x="4131"><use xlink:href="#a"/><use xlink:href="#1" y="2.171"/><use xlink:href="#13" y="4.342"/><use xlink:href="#14" y="6.513"/><use xlink:href="#1" y="10.855"/><text y="14.696" class="g">❯</text><text x="2.004" y="14.696" class="j">bitly</text><text x="8.016" y="14.696" class="k">--url</text><text x="14.028" y="14.696" class="k">ke</text></svg><svg x="4212"><use xlink:href="#a"/><use xlink:href="#1" y="2.171"/><use xlink:href="#13" y="4.342"/><use xlink:href="#14" y="6.513"/><use xlink:href="#1" y="10.855"/><text y="14.696" class="g">❯</text><text x="2.004" y="14.696" class="j">bitly</text><text x="8.016" y="14.696" class="k">--url</text><text x="14.028" y="14.696" class="k">kep</text></svg><svg x="4293"><use xlink:href="#a"/><use xlink:href="#1" y="2.171"/><use xlink:href="#13" y="4.342"/><use xlink:href="#14" y="6.513"/><use xlink:href="#1" y="10.855"/><text y="14.696" class="g">❯</text><text x="2.004" y="14.696" class="j">bitly</text><text x="8.016" y="14.696" class="k">--url</text><text x="14.028" y="14.696" class="k">kepi</text></svg><svg x="4374"><use xlink:href="#a"/><use xlink:href="#1" y="2.171"/><use xlink:href="#13" y="4.342"/><use xlink:href="#14" y="6.513"/><use xlink:href="#1" y="10.855"/><text y="14.696" class="g">❯</text><text x="2.004" y="14.696" class="j">bitly</text><text x="8.016" y="14.696" class="k">--url</text><text x="14.028" y="14.696" class="k">kepin</text></svg><svg x="4455"><use xlink:href="#a"/><use xlink:href="#1" y="2.171"/><use xlink:href="#13" y="4.342"/><use xlink:href="#14" y="6.513"/><use xlink:href="#1" y="10.855"/><text y="14.696" class="g">❯</text><text x="2.004" y="14.696" class="j">bitly</text><text x="8.016" y="14.696" class="k">--url</text><text x="14.028" y="14.696" class="k">kepins</text></svg><svg x="4536"><use xlink:href="#a"/><use xlink:href="#1" y="2.171"/><use xlink:href="#13" y="4.342"/><use xlink:href="#14" y="6.513"/><use xlink:href="#1" y="10.855"/><text y="14.696" class="g">❯</text><text x="2.004" y="14.696" class="j">bitly</text><text x="8.016" y="14.696" class="k">--url</text><text x="14.028" y="14.696" class="k">kepinsk</text></svg><svg x="4617"><use xlink:href="#a"/><use xlink:href="#1" y="2.171"/><use xlink:href="#13" y="4.342"/><use xlink:href="#14" y="6.513"/><use xlink:href="#1" y="10.855"/><text y="14.696" class="g">❯</text><text x="2.004" y="14.696" class="j">bitly</text><text x="8.016" y="14.696" class="k">--url</text><text x="14.028" y="14.696" class="k">kepinski</text></svg><svg x="4698"><use xlink:href="#a"/><use xlink:href="#1" y="2.171"/><use xlink:href="#13" y="4.342"/><use xlink:href="#14" y="6.513"/><use xlink:href="#1" y="10.855"/><text y="14.696" class="g">❯</text><text x="2.004" y="14.696" class="j">bitly</text><text x="8.016" y="14.696" class="k">--url</text><text x="14.028" y="14.696" class="k">kepinski.</text></svg><svg x="4779"><use xlink:href="#a"/><use xlink:href="#1" y="2.171"/><use xlink:href="#13" y="4.342"/><use xlink:href="#14" y="6.513"/><use xlink:href="#1" y="10.855"/><text y="14.696" class="g">❯</text><text x="2.004" y="14.696" class="j">bitly</text><text x="8.016" y="14.696" class="k">--url</text><text x="14.028" y="14.696" class="k">kepinski.m</text></svg><svg x="4860"><use xlink:href="#a"/><use xlink:href="#1" y="2.171"/><use xlink:href="#13" y="4.342"/><use xlink:href="#14" y="6.513"/><use xlink:href="#1" y="10.855"/><text y="14.696" class="g">❯</text><text x="2.004" y="14.696" class="j">bitly</text><text x="8.016" y="14.696" class="k">--url</text><text x="14.028" y="14.696" class="k">kepinski.me</text></svg><svg x="4941"><use xlink:href="#a"/><use xlink:href="#1" y="2.171"/><use xlink:href="#13" y="4.342"/><use xlink:href="#14" y="6.513"/><use xlink:href="#1" y="10.855"/><text y="14.696" class="g">❯</text><text x="2.004" y="14.696" class="j">bitly</text><text x="8.016" y="14.696" class="k">--url</text><text x="14.028" y="14.696" class="k">kepinski.me/</text></svg><svg x="5022"><use xlink:href="#a"/><use xlink:href="#1" y="2.171"/><use xlink:href="#13" y="4.342"/><use xlink:href="#14" y="6.513"/><use xlink:href="#1" y="10.855"/><text y="14.696" class="g">❯</text><text x="2.004" y="14.696" class="j">bitly</text><text x="8.016" y="14.696" class="k">--url</text><text x="14.028" y="14.696" class="k">kepinski.me/e</text></svg><svg x="5103"><use xlink:href="#a"/><use xlink:href="#1" y="2.171"/><use xlink:href="#13" y="4.342"/><use xlink:href="#14" y="6.513"/><use xlink:href="#1" y="10.855"/><text y="14.696" class="g">❯</text><text x="2.004" y="14.696" class="j">bitly</text><text x="8.016" y="14.696" class="k">--url</text><text x="14.028" y="14.696" class="k">kepinski.me/ex</text></svg><svg x="5184"><use xlink:href="#a"/><use xlink:href="#1" y="2.171"/><use xlink:href="#13" y="4.342"/><use xlink:href="#14" y="6.513"/><use xlink:href="#1" y="10.855"/><text y="14.696" class="g">❯</text><text x="2.004" y="14.696" class="j">bitly</text><text x="8.016" y="14.696" class="k">--url</text><text x="14.028" y="14.696" class="k">kepinski.me/exa</text></svg><svg x="5265"><use xlink:href="#a"/><use xlink:href="#1" y="2.171"/><use xlink:href="#13" y="4.342"/><use xlink:href="#14" y="6.513"/><use xlink:href="#1" y="10.855"/><text y="14.696" class="g">❯</text><text x="2.004" y="14.696" class="j">bitly</text><text x="8.016" y="14.696" class="k">--url</text><text x="14.028" y="14.696" class="k">kepinski.me/exam</text></svg><svg x="5346"><use xlink:href="#a"/><use xlink:href="#1" y="2.171"/><use xlink:href="#13" y="4.342"/><use xlink:href="#14" y="6.513"/><use xlink:href="#1" y="10.855"/><text y="14.696" class="g">❯</text><text x="2.004" y="14.696" class="j">bitly</text><text x="8.016" y="14.696" class="k">--url</text><text x="14.028" y="14.696" class="k">kepinski.me/examp</text></svg><svg x="5427"><use xlink:href="#a"/><use xlink:href="#1" y="2.171"/><use xlink:href="#13" y="4.342"/><use xlink:href="#14" y="6.513"/><use xlink:href="#1" y="10.855"/><text y="14.696" class="g">❯</text><text x="2.004" y="14.696" class="j">bitly</text><text x="8.016" y="14.696" class="k">--url</text><text x="14.028" y="14.696" class="k">kepinski.me/exampl</text></svg><svg x="5508"><use xlink:href="#a"/><use xlink:href="#1" y="2.171"/><use xlink:href="#13" y="4.342"/><use xlink:href="#14" y="6.513"/><use xlink:href="#1" y="10.855"/><use xlink:href="#15" y="13.026"/></svg><svg x="5589"><use xlink:href="#a"/><use xlink:href="#1" y="2.171"/><use xlink:href="#13" y="4.342"/><use xlink:href="#14" y="6.513"/><use xlink:href="#1" y="10.855"/><use xlink:href="#15" y="13.026"/></svg><svg x="5670"><use xlink:href="#a"/><use xlink:href="#1" y="2.171"/><use xlink:href="#13" y="4.342"/><use xlink:href="#14" y="6.513"/><use xlink:href="#1" y="10.855"/><use xlink:href="#15" y="13.026"/></svg><svg x="5751"><use xlink:href="#a"/><use xlink:href="#1" y="2.171"/><use xlink:href="#13" y="4.342"/><use xlink:href="#14" y="6.513"/><use xlink:href="#1" y="10.855"/><use xlink:href="#15" y="13.026"/></svg><svg x="5832"><use xlink:href="#a"/><use xlink:href="#1" y="2.171"/><use xlink:href="#13" y="4.342"/><use xlink:href="#14" y="6.513"/><use xlink:href="#1" y="10.855"/><use xlink:href="#15" y="13.026"/><use xlink:href="#16" y="15.197"/></svg><svg x="5913"><use xlink:href="#a"/><use xlink:href="#1" y="2.171"/><use xlink:href="#13" y="4.342"/><use xlink:href="#14" y="6.513"/><use xlink:href="#1" y="10.855"/><use xlink:href="#15" y="13.026"/><use xlink:href="#16" y="15.197"/></svg><svg x="5994"><use xlink:href="#a"/><use xlink:href="#1" y="2.171"/><use xlink:href="#13" y="4.342"/><use xlink:href="#14" y="6.513"/><use xlink:href="#1" y="10.855"/><use xlink:href="#15" y="13.026"/><use xlink:href="#16" y="15.197"/><use xlink:href="#1" y="19.539"/></svg><svg x="6075"><use xlink:href="#a"/><use xlink:href="#1" y="2.171"/><use xlink:href="#13" y="4.342"/><use xlink:href="#14" y="6.513"/><use xlink:href="#1" y="10.855"/><use xlink:href="#15" y="13.026"/><use xlink:href="#16" y="15.197"/><use xlink:href="#1" y="19.539"/><use xlink:href="#2" y="21.71"/></svg><svg x="6156"><use xlink:href="#a"/><use xlink:href="#1" y="2.171"/><use xlink:href="#13" y="4.342"/><use xlink:href="#14" y="6.513"/><use xlink:href="#1" y="10.855"/><use xlink:href="#15" y="13.026"/><use xlink:href="#16" y="15.197"/><use xlink:href="#1" y="19.539"/><use xlink:href="#2" y="21.71"/></svg><svg x="6237"><use xlink:href="#a"/><use xlink:href="#1" y="2.171"/><use xlink:href="#13" y="4.342"/><use xlink:href="#14" y="6.513"/><use xlink:href="#1" y="10.855"/><use xlink:href="#15" y="13.026"/><use xlink:href="#16" y="15.197"/><use xlink:href="#1" y="19.539"/><use xlink:href="#2" y="21.71"/></svg><svg x="6318"><use xlink:href="#a"/><use xlink:href="#1" y="2.171"/><use xlink:href="#13" y="4.342"/><use xlink:href="#14" y="6.513"/><use xlink:href="#1" y="10.855"/><use xlink:href="#15" y="13.026"/><use xlink:href="#16" y="15.197"/><use xlink:href="#1" y="19.539"/><use xlink:href="#3" y="21.71"/></svg><svg x="6399"><use xlink:href="#a"/><use xlink:href="#1" y="2.171"/><use xlink:href="#13" y="4.342"/><use xlink:href="#14" y="6.513"/><use xlink:href="#1" y="10.855"/><use xlink:href="#15" y="13.026"/><use xlink:href="#16" y="15.197"/><use xlink:href="#1" y="19.539"/><use xlink:href="#4" y="21.71"/></svg><svg x="6480"><use xlink:href="#a"/><use xlink:href="#1" y="2.171"/><use xlink:href="#13" y="4.342"/><use xlink:href="#14" y="6.513"/><use xlink:href="#1" y="10.855"/><use xlink:href="#15" y="13.026"/><use xlink:href="#16" y="15.197"/><use xlink:href="#1" y="19.539"/><use xlink:href="#5" y="21.71"/></svg><svg x="6561"><use xlink:href="#a"/><use xlink:href="#1" y="2.171"/><use xlink:href="#13" y="4.342"/><use xlink:href="#14" y="6.513"/><use xlink:href="#1" y="10.855"/><use xlink:href="#15" y="13.026"/><use xlink:href="#16" y="15.197"/><use xlink:href="#1" y="19.539"/><use xlink:href="#6" y="21.71"/></svg><svg x="6642"><use xlink:href="#a"/><use xlink:href="#1" y="2.171"/><use xlink:href="#13" y="4.342"/><use xlink:href="#14" y="6.513"/><use xlink:href="#1" y="10.855"/><use xlink:href="#15" y="13.026"/><use xlink:href="#16" y="15.197"/><use xlink:href="#1" y="19.539"/><use xlink:href="#7" y="21.71"/></svg><svg x="6723"><use xlink:href="#a"/><use xlink:href="#1" y="2.171"/><use xlink:href="#13" y="4.342"/><use xlink:href="#14" y="6.513"/><use xlink:href="#1" y="10.855"/><use xlink:href="#15" y="13.026"/><use xlink:href="#16" y="15.197"/><use xlink:href="#1" y="19.539"/><use xlink:href="#7" y="21.71"/></svg><svg x="6804"><use xlink:href="#a"/><use xlink:href="#1" y="2.171"/><use xlink:href="#13" y="4.342"/><use xlink:href="#14" y="6.513"/><use xlink:href="#1" y="10.855"/><use xlink:href="#15" y="13.026"/><use xlink:href="#16" y="15.197"/><use xlink:href="#1" y="19.539"/><use xlink:href="#8" y="21.71"/></svg><svg x="6885"><use xlink:href="#a"/><use xlink:href="#1" y="2.171"/><use xlink:href="#13" y="4.342"/><use xlink:href="#14" y="6.513"/><use xlink:href="#1" y="10.855"/><use xlink:href="#15" y="13.026"/><use xlink:href="#16" y="15.197"/><use xlink:href="#1" y="19.539"/><use xlink:href="#9" y="21.71"/></svg><svg x="6966"><use xlink:href="#a"/><use xlink:href="#1" y="2.171"/><use xlink:href="#13" y="4.342"/><use xlink:href="#14" y="6.513"/><use xlink:href="#1" y="10.855"/><use xlink:href="#15" y="13.026"/><use xlink:href="#16" y="15.197"/><use xlink:href="#1" y="19.539"/><text y="23.38" class="g">❯</text><text x="2.004" y="23.38" class="j">bitly</text><text x="8.016" y="23.38" class="k">--l</text></svg><svg x="7047"><use xlink:href="#a"/><use xlink:href="#1" y="2.171"/><use xlink:href="#13" y="4.342"/><use xlink:href="#14" y="6.513"/><use xlink:href="#1" y="10.855"/><use xlink:href="#15" y="13.026"/><use xlink:href="#16" y="15.197"/><use xlink:href="#1" y="19.539"/><text y="23.38" class="g">❯</text><text x="2.004" y="23.38" class="j">bitly</text><text x="8.016" y="23.38" class="k">--li</text></svg><svg x="7128"><use xlink:href="#a"/><use xlink:href="#1" y="2.171"/><use xlink:href="#13" y="4.342"/><use xlink:href="#14" y="6.513"/><use xlink:href="#1" y="10.855"/><use xlink:href="#15" y="13.026"/><use xlink:href="#16" y="15.197"/><use xlink:href="#1" y="19.539"/><text y="23.38" class="g">❯</text><text x="2.004" y="23.38" class="j">bitly</text><text x="8.016" y="23.38" class="k">--lis</text></svg><svg x="7209"><use xlink:href="#a"/><use xlink:href="#1" y="2.171"/><use xlink:href="#13" y="4.342"/><use xlink:href="#14" y="6.513"/><use xlink:href="#1" y="10.855"/><use xlink:href="#15" y="13.026"/><use xlink:href="#16" y="15.197"/><use xlink:href="#1" y="19.539"/><use xlink:href="#17" y="21.71"/></svg><svg x="7290"><use xlink:href="#a"/><use xlink:href="#1" y="2.171"/><use xlink:href="#13" y="4.342"/><use xlink:href="#14" y="6.513"/><use xlink:href="#1" y="10.855"/><use xlink:href="#15" y="13.026"/><use xlink:href="#16" y="15.197"/><use xlink:href="#1" y="19.539"/><use xlink:href="#17" y="21.71"/></svg><svg x="7371"><use xlink:href="#a"/><use xlink:href="#1" y="2.171"/><use xlink:href="#13" y="4.342"/><use xlink:href="#14" y="6.513"/><use xlink:href="#1" y="10.855"/><use xlink:href="#15" y="13.026"/><use xlink:href="#16" y="15.197"/><use xlink:href="#1" y="19.539"/><use xlink:href="#17" y="21.71"/></svg><svg x="7452"><use xlink:href="#a"/><use xlink:href="#1" y="2.171"/><use xlink:href="#13" y="4.342"/><use xlink:href="#14" y="6.513"/><use xlink:href="#1" y="10.855"/><use xlink:href="#15" y="13.026"/><use xlink:href="#16" y="15.197"/><use xlink:href="#1" y="19.539"/><use xlink:href="#17" y="21.71"/></svg><svg x="7533"><use xlink:href="#a"/><use xlink:href="#1" y="2.171"/><use xlink:href="#13" y="4.342"/><use xlink:href="#14" y="6.513"/><use xlink:href="#1" y="10.855"/><use xlink:href="#15" y="13.026"/><use xlink:href="#16" y="15.197"/><use xlink:href="#1" y="19.539"/><use xlink:href="#17" y="21.71"/><use xlink:href="#18" y="23.881"/></svg><svg x="7614"><use xlink:href="#a"/><use xlink:href="#1" y="2.171"/><use xlink:href="#13" y="4.342"/><use xlink:href="#14" y="6.513"/><use xlink:href="#1" y="10.855"/><use xlink:href="#15" y="13.026"/><use xlink:href="#16" y="15.197"/><use xlink:href="#1" y="19.539"/><use xlink:href="#17" y="21.71"/><use xlink:href="#18" y="23.881"/><use xlink:href="#19" y="28.223"/><use xlink:href="#20" y="30.394"/></svg><svg x="7695"><use xlink:href="#a"/><use xlink:href="#1" y="2.171"/><use xlink:href="#13" y="4.342"/><use xlink:href="#14" y="6.513"/><use xlink:href="#1" y="10.855"/><use xlink:href="#15" y="13.026"/><use xlink:href="#16" y="15.197"/><use xlink:href="#1" y="19.539"/><use xlink:href="#17" y="21.71"/><use xlink:href="#18" y="23.881"/><use xlink:href="#19" y="28.223"/><use xlink:href="#20" y="30.394"/></svg><svg x="7776"><use xlink:href="#a"/><use xlink:href="#1" y="2.171"/><use xlink:href="#13" y="4.342"/><use xlink:href="#14" y="6.513"/><use xlink:href="#1" y="10.855"/><use xlink:href="#15" y="13.026"/><use xlink:href="#16" y="15.197"/><use xlink:href="#1" y="19.539"/><use xlink:href="#17" y="21.71"/><use xlink:href="#18" y="23.881"/><use xlink:href="#19" y="28.223"/><use xlink:href="#20" y="30.394"/><use xlink:href="#1" y="36.907"/></svg><svg x="7857"><use xlink:href="#a"/><use xlink:href="#1" y="2.171"/><use xlink:href="#13" y="4.342"/><use xlink:href="#14" y="6.513"/><use xlink:href="#1" y="10.855"/><use xlink:href="#15" y="13.026"/><use xlink:href="#16" y="15.197"/><use xlink:href="#1" y="19.539"/><use xlink:href="#17" y="21.71"/><use xlink:href="#18" y="23.881"/><use xlink:href="#19" y="28.223"/><use xlink:href="#20" y="30.394"/><use xlink:href="#1" y="36.907"/></svg><svg x="7938"><use xlink:href="#a"/><use xlink:href="#1" y="2.171"/><use xlink:href="#13" y="4.342"/><use xlink:href="#14" y="6.513"/><use xlink:href="#1" y="10.855"/><use xlink:href="#15" y="13.026"/><use xlink:href="#16" y="15.197"/><use xlink:href="#1" y="19.539"/><use xlink:href="#17" y="21.71"/><use xlink:href="#18" y="23.881"/><use xlink:href="#19" y="28.223"/><use xlink:href="#20" y="30.394"/><use xlink:href="#1" y="36.907"/><use xlink:href="#2" y="39.078"/></svg><svg x="8019"><use xlink:href="#a"/><use xlink:href="#1" y="2.171"/><use xlink:href="#13" y="4.342"/><use xlink:href="#14" y="6.513"/><use xlink:href="#1" y="10.855"/><use xlink:href="#15" y="13.026"/><use xlink:href="#16" y="15.197"/><use xlink:href="#1" y="19.539"/><use xlink:href="#17" y="21.71"/><use xlink:href="#18" y="23.881"/><use xlink:href="#19" y="28.223"/><use xlink:href="#20" y="30.394"/><use xlink:href="#1" y="36.907"/><use xlink:href="#2" y="39.078"/></svg><svg x="8100"><use xlink:href="#a"/><use xlink:href="#1" y="2.171"/><use xlink:href="#13" y="4.342"/><use xlink:href="#14" y="6.513"/><use xlink:href="#1" y="10.855"/><use xlink:href="#15" y="13.026"/><use xlink:href="#16" y="15.197"/><use xlink:href="#1" y="19.539"/><use xlink:href="#17" y="21.71"/><use xlink:href="#18" y="23.881"/><use xlink:href="#19" y="28.223"/><use xlink:href="#20" y="30.394"/><use xlink:href="#1" y="36.907"/><use xlink:href="#2" y="39.078"/></svg><svg x="8181"><use xlink:href="#a"/><use xlink:href="#1" y="2.171"/><use xlink:href="#13" y="4.342"/><use xlink:href="#14" y="6.513"/><use xlink:href="#1" y="10.855"/><use xlink:href="#15" y="13.026"/><use xlink:href="#16" y="15.197"/><use xlink:href="#1" y="19.539"/><use xlink:href="#17" y="21.71"/><use xlink:href="#18" y="23.881"/><use xlink:href="#19" y="28.223"/><use xlink:href="#20" y="30.394"/><use xlink:href="#1" y="36.907"/><use xlink:href="#2" y="39.078"/></svg></svg></g></g></svg></svg>